%TF.GenerationSoftware,KiCad,Pcbnew,8.0.8*%
%TF.CreationDate,2025-06-15T20:35:26-04:00*%
%TF.ProjectId,keyboard meow,6b657962-6f61-4726-9420-6d656f772e6b,rev?*%
%TF.SameCoordinates,Original*%
%TF.FileFunction,Copper,L2,Bot*%
%TF.FilePolarity,Positive*%
%FSLAX46Y46*%
G04 Gerber Fmt 4.6, Leading zero omitted, Abs format (unit mm)*
G04 Created by KiCad (PCBNEW 8.0.8) date 2025-06-15 20:35:26*
%MOMM*%
%LPD*%
G01*
G04 APERTURE LIST*
%TA.AperFunction,ComponentPad*%
%ADD10R,1.508000X1.508000*%
%TD*%
%TA.AperFunction,ComponentPad*%
%ADD11C,2.200000*%
%TD*%
%TA.AperFunction,ComponentPad*%
%ADD12C,1.238000*%
%TD*%
%TA.AperFunction,ComponentPad*%
%ADD13R,1.238000X1.238000*%
%TD*%
%TA.AperFunction,ViaPad*%
%ADD14C,0.600000*%
%TD*%
%TA.AperFunction,Conductor*%
%ADD15C,0.200000*%
%TD*%
G04 APERTURE END LIST*
D10*
%TO.P,U1,GP0,GP0*%
%TO.N,col1*%
X210286300Y-91528400D03*
%TO.P,U1,GP1,GP1*%
%TO.N,col2*%
X210286300Y-94068400D03*
%TO.P,U1,GND4,GND4*%
%TO.N,unconnected-(U1-PadGND4)*%
X210286300Y-96608400D03*
%TO.P,U1,GP2,GP2*%
%TO.N,col3*%
X210286300Y-99148400D03*
%TO.P,U1,GP3,GP3*%
%TO.N,col4*%
X210286300Y-101688400D03*
%TO.P,U1,GP4,GP4*%
%TO.N,col5*%
X210286300Y-104228400D03*
%TO.P,U1,GP5,GP5*%
%TO.N,row1*%
X210286300Y-106768400D03*
%TO.P,U1,GND5,GND5*%
%TO.N,unconnected-(U1-PadGND5)*%
X210286300Y-109308400D03*
%TO.P,U1,GP6,GP6*%
%TO.N,row3*%
X210286300Y-111848400D03*
%TO.P,U1,GP7,GP7*%
%TO.N,row4*%
X210286300Y-114388400D03*
%TO.P,U1,GP8,GP8*%
%TO.N,row5*%
X210286300Y-116928400D03*
%TO.P,U1,GP9,GP9*%
%TO.N,row6*%
X210286300Y-119468400D03*
%TO.P,U1,GND6,GND6*%
%TO.N,unconnected-(U1-PadGND6)*%
X210286300Y-122008400D03*
%TO.P,U1,GP10,GP10*%
%TO.N,row8*%
X210286300Y-124548400D03*
%TO.P,U1,GP11,GP11*%
%TO.N,col5*%
X210286300Y-127088400D03*
%TO.P,U1,GP12,GP12*%
%TO.N,row7*%
X210286300Y-129628400D03*
%TO.P,U1,GP13,GP13*%
%TO.N,1*%
X210286300Y-132168400D03*
%TO.P,U1,GND7,GND7*%
%TO.N,unconnected-(U1-PadGND7)*%
X210286300Y-134708400D03*
%TO.P,U1,GP14,GP14*%
%TO.N,2*%
X210286300Y-137248400D03*
%TO.P,U1,GP15,GP15*%
%TO.N,3*%
X210286300Y-139788400D03*
%TO.P,U1,VBUS,VBUS*%
%TO.N,unconnected-(U1-PadVBUS)*%
X228066300Y-91528400D03*
%TO.P,U1,VSYS,VSYS*%
%TO.N,unconnected-(U1-PadVSYS)*%
X228066300Y-94068400D03*
%TO.P,U1,GND,GND*%
%TO.N,unconnected-(U1-PadGND)*%
X228066300Y-96608400D03*
%TO.P,U1,3V3_EN,3V3_EN*%
%TO.N,unconnected-(U1-Pad3V3_EN)*%
X228066300Y-99148400D03*
%TO.P,U1,3V3,3V3*%
%TO.N,unconnected-(U1-Pad3V3)*%
X228066300Y-101688400D03*
%TO.P,U1,ADC_VREF,ADC_VREF*%
%TO.N,unconnected-(U1-PadADC_VREF)*%
X228066300Y-104228400D03*
%TO.P,U1,GP28_A2,GP28_A2*%
%TO.N,unconnected-(U1-PadGP28_A2)*%
X228066300Y-106768400D03*
%TO.P,U1,AGND,AGND*%
%TO.N,unconnected-(U1-PadAGND)*%
X228066300Y-109308400D03*
%TO.P,U1,GP27_A1,GP27_A1*%
%TO.N,unconnected-(U1-PadGP27_A1)*%
X228066300Y-111848400D03*
%TO.P,U1,GP26_A0,GP26_A0*%
%TO.N,unconnected-(U1-PadGP26_A0)*%
X228066300Y-114388400D03*
%TO.P,U1,RUN,RUN*%
%TO.N,unconnected-(U1-PadRUN)*%
X228066300Y-116928400D03*
%TO.P,U1,GP22,GP22*%
%TO.N,unconnected-(U1-PadGP22)*%
X228066300Y-119468400D03*
%TO.P,U1,GND2,GND2*%
%TO.N,unconnected-(U1-PadGND2)*%
X228066300Y-122008400D03*
%TO.P,U1,GP21,GP21*%
%TO.N,unconnected-(U1-PadGP21)*%
X228066300Y-124548400D03*
%TO.P,U1,GP20,GP20*%
%TO.N,unconnected-(U1-PadGP20)*%
X228066300Y-127088400D03*
%TO.P,U1,GP19,GP19*%
%TO.N,unconnected-(U1-PadGP19)*%
X228066300Y-129628400D03*
%TO.P,U1,GP18,GP18*%
%TO.N,unconnected-(U1-PadGP18)*%
X228066300Y-132168400D03*
%TO.P,U1,GND3,GND3*%
%TO.N,unconnected-(U1-PadGND3)*%
X228066300Y-134708400D03*
%TO.P,U1,GP17,GP17*%
%TO.N,unconnected-(U1-PadGP17)*%
X228066300Y-137248400D03*
%TO.P,U1,GP16,GP16*%
%TO.N,4*%
X228066300Y-139788400D03*
%TD*%
D11*
%TO.P,SW44,1,1*%
%TO.N,1*%
X94810500Y-198645800D03*
%TO.P,SW44,2,2*%
%TO.N,Net-(D43-A)*%
X88524321Y-195951723D03*
%TD*%
%TO.P,SW43,1,1*%
%TO.N,2*%
X94754600Y-171216200D03*
%TO.P,SW43,2,2*%
%TO.N,Net-(D42-A)*%
X88468421Y-168522123D03*
%TD*%
%TO.P,SW42,1,1*%
%TO.N,3*%
X122031900Y-171164100D03*
%TO.P,SW42,2,2*%
%TO.N,Net-(D21-A)*%
X115745721Y-168470023D03*
%TD*%
%TO.P,SW40,1,1*%
%TO.N,col5*%
X182109900Y-173422600D03*
%TO.P,SW40,2,2*%
%TO.N,Net-(D20-A)*%
X175759900Y-175962600D03*
%TD*%
%TO.P,SW39,1,1*%
%TO.N,col5*%
X253500500Y-152332300D03*
%TO.P,SW39,2,2*%
%TO.N,Net-(D19-A)*%
X247150500Y-154872300D03*
%TD*%
%TO.P,SW38,1,1*%
%TO.N,col5*%
X295754800Y-198436300D03*
%TO.P,SW38,2,2*%
%TO.N,Net-(D18-A)*%
X293060723Y-204722479D03*
%TD*%
%TO.P,SW37,1,1*%
%TO.N,col5*%
X282035200Y-184775500D03*
%TO.P,SW37,2,2*%
%TO.N,Net-(D17-A)*%
X279341123Y-191061679D03*
%TD*%
%TO.P,SW36,1,1*%
%TO.N,col5*%
X295734300Y-143769200D03*
%TO.P,SW36,2,2*%
%TO.N,Net-(D16-A)*%
X293040223Y-150055379D03*
%TD*%
%TO.P,SW35,1,1*%
%TO.N,col5*%
X81171800Y-184885700D03*
%TO.P,SW35,2,2*%
%TO.N,Net-(D15-A)*%
X74885621Y-182191623D03*
%TD*%
%TO.P,SW34,1,1*%
%TO.N,col5*%
X81171800Y-157542800D03*
%TO.P,SW34,2,2*%
%TO.N,Net-(D6-A)*%
X74885621Y-154848723D03*
%TD*%
%TO.P,SW33,1,1*%
%TO.N,col5*%
X108426700Y-157489500D03*
%TO.P,SW33,2,2*%
%TO.N,Net-(D5-A)*%
X102140521Y-154795423D03*
%TD*%
%TO.P,SW32,1,1*%
%TO.N,col4*%
X201316500Y-154068000D03*
%TO.P,SW32,2,2*%
%TO.N,Net-(D22-A)*%
X194966500Y-156608000D03*
%TD*%
%TO.P,SW31,1,1*%
%TO.N,col4*%
X197471600Y-196066500D03*
%TO.P,SW31,2,2*%
%TO.N,Net-(D23-A)*%
X191121600Y-198606500D03*
%TD*%
%TO.P,SW30,1,1*%
%TO.N,col4*%
X336797200Y-130033100D03*
%TO.P,SW30,2,2*%
%TO.N,Net-(D24-A)*%
X334103123Y-136319279D03*
%TD*%
%TO.P,SW29,1,1*%
%TO.N,col4*%
X336751000Y-102675300D03*
%TO.P,SW29,2,2*%
%TO.N,Net-(D25-A)*%
X334056923Y-108961479D03*
%TD*%
%TO.P,SW28,1,1*%
%TO.N,col4*%
X282094100Y-157384600D03*
%TO.P,SW28,2,2*%
%TO.N,Net-(D26-K)*%
X279400023Y-163670779D03*
%TD*%
%TO.P,SW27,1,1*%
%TO.N,col4*%
X67507100Y-171320200D03*
%TO.P,SW27,2,2*%
%TO.N,Net-(D14-A)*%
X61220921Y-168626123D03*
%TD*%
%TO.P,SW26,1,1*%
%TO.N,col4*%
X67587800Y-143854700D03*
%TO.P,SW26,2,2*%
%TO.N,Net-(D7-A)*%
X61301621Y-141160623D03*
%TD*%
%TO.P,SW25,1,1*%
%TO.N,col4*%
X94805400Y-143889400D03*
%TO.P,SW25,2,2*%
%TO.N,Net-(D4-A)*%
X88519221Y-141195323D03*
%TD*%
%TO.P,SW24,1,1*%
%TO.N,col3*%
X220578300Y-173448600D03*
%TO.P,SW24,2,2*%
%TO.N,Net-(D31-K)*%
X214228300Y-175988600D03*
%TD*%
%TO.P,SW23,1,1*%
%TO.N,col3*%
X336783300Y-157508500D03*
%TO.P,SW23,2,2*%
%TO.N,Net-(D30-K)*%
X334089223Y-163794679D03*
%TD*%
%TO.P,SW22,1,1*%
%TO.N,col3*%
X323088200Y-143772000D03*
%TO.P,SW22,2,2*%
%TO.N,Net-(D29-K)*%
X320394123Y-150058179D03*
%TD*%
%TO.P,SW21,1,1*%
%TO.N,col3*%
X323058300Y-116446400D03*
%TO.P,SW21,2,2*%
%TO.N,Net-(D28-K)*%
X320364223Y-122732579D03*
%TD*%
%TO.P,SW20,1,1*%
%TO.N,col3*%
X268433200Y-171045400D03*
%TO.P,SW20,2,2*%
%TO.N,Net-(D27-K)*%
X265739123Y-177331579D03*
%TD*%
%TO.P,SW19,1,1*%
%TO.N,col3*%
X53898300Y-157438700D03*
%TO.P,SW19,2,2*%
%TO.N,Net-(D13-A)*%
X47612121Y-154744623D03*
%TD*%
%TO.P,SW18,1,1*%
%TO.N,col3*%
X53933000Y-130234600D03*
%TO.P,SW18,2,2*%
%TO.N,Net-(D8-A)*%
X47646821Y-127540523D03*
%TD*%
%TO.P,SW17,1,1*%
%TO.N,col3*%
X81148700Y-130223000D03*
%TO.P,SW17,2,2*%
%TO.N,Net-(D3-A)*%
X74862521Y-127528923D03*
%TD*%
%TO.P,SW16,1,1*%
%TO.N,col2*%
X201319200Y-173413900D03*
%TO.P,SW16,2,2*%
%TO.N,Net-(D32-K)*%
X194969200Y-175953900D03*
%TD*%
%TO.P,SW15,1,1*%
%TO.N,col2*%
X323018300Y-171034600D03*
%TO.P,SW15,2,2*%
%TO.N,Net-(D33-K)*%
X320324223Y-177320779D03*
%TD*%
%TO.P,SW14,1,1*%
%TO.N,col2*%
X309367500Y-157397900D03*
%TO.P,SW14,2,2*%
%TO.N,Net-(D34-K)*%
X306673423Y-163684079D03*
%TD*%
%TO.P,SW13,1,1*%
%TO.N,col2*%
X268305900Y-198401600D03*
%TO.P,SW13,2,2*%
%TO.N,Net-(D35-K)*%
X265611823Y-204687779D03*
%TD*%
%TO.P,SW12,1,1*%
%TO.N,col2*%
X241089300Y-198358300D03*
%TO.P,SW12,2,2*%
%TO.N,Net-(D36-K)*%
X238395223Y-204644479D03*
%TD*%
%TO.P,SW11,1,1*%
%TO.N,col2*%
X122082700Y-198540400D03*
%TO.P,SW11,2,2*%
%TO.N,Net-(D12-A)*%
X115796521Y-195846323D03*
%TD*%
%TO.P,SW10,1,1*%
%TO.N,col2*%
X149421900Y-198438200D03*
%TO.P,SW10,2,2*%
%TO.N,Net-(D9-A)*%
X143135721Y-195744123D03*
%TD*%
%TO.P,SW9,1,1*%
%TO.N,col2*%
X67555600Y-116672400D03*
%TO.P,SW9,2,2*%
%TO.N,Net-(D2-A)*%
X61269421Y-113978323D03*
%TD*%
%TO.P,SW8,1,1*%
%TO.N,col1*%
X137294800Y-151994600D03*
%TO.P,SW8,2,2*%
%TO.N,Net-(D41-K)*%
X130944800Y-154534600D03*
%TD*%
%TO.P,SW7,1,1*%
%TO.N,col1*%
X309403600Y-184770900D03*
%TO.P,SW7,2,2*%
%TO.N,Net-(D40-K)*%
X306709523Y-191057079D03*
%TD*%
%TO.P,SW6,2,2*%
%TO.N,Net-(D39-K)*%
X292934623Y-177383679D03*
%TO.P,SW6,1,1*%
%TO.N,col1*%
X295628700Y-171097500D03*
%TD*%
%TO.P,SW5,1,1*%
%TO.N,col1*%
X309336900Y-130131900D03*
%TO.P,SW5,2,2*%
%TO.N,Net-(D38-K)*%
X306642823Y-136418079D03*
%TD*%
%TO.P,SW4,2,2*%
%TO.N,Net-(D37-K)*%
X252048123Y-191021379D03*
%TO.P,SW4,1,1*%
%TO.N,col1*%
X254742200Y-184735200D03*
%TD*%
%TO.P,SW3,1,1*%
%TO.N,col1*%
X108393300Y-184903000D03*
%TO.P,SW3,2,2*%
%TO.N,Net-(D11-A)*%
X102107121Y-182208923D03*
%TD*%
%TO.P,SW2,1,1*%
%TO.N,col1*%
X135770800Y-184798900D03*
%TO.P,SW2,2,2*%
%TO.N,Net-(D10-A)*%
X129484621Y-182104823D03*
%TD*%
%TO.P,SW1,2,2*%
%TO.N,Net-(D1-A)*%
X49466179Y-109374077D03*
%TO.P,SW1,1,1*%
%TO.N,col1*%
X43180000Y-106680000D03*
%TD*%
D12*
%TO.P,D43,A*%
%TO.N,N/C*%
X188376500Y-140689100D03*
D13*
%TO.P,D43,K*%
X180839500Y-140689100D03*
%TD*%
D12*
%TO.P,D42,A*%
%TO.N,N/C*%
X188376500Y-137419100D03*
D13*
%TO.P,D42,K*%
X180839500Y-137419100D03*
%TD*%
D12*
%TO.P,D41,A*%
%TO.N,N/C*%
X188376500Y-134149100D03*
D13*
%TO.P,D41,K*%
X180839500Y-134149100D03*
%TD*%
D12*
%TO.P,D40,A*%
%TO.N,N/C*%
X188376500Y-130879100D03*
D13*
%TO.P,D40,K*%
X180839500Y-130879100D03*
%TD*%
D12*
%TO.P,D39,A*%
%TO.N,N/C*%
X188376500Y-127609100D03*
D13*
%TO.P,D39,K*%
X180839500Y-127609100D03*
%TD*%
D12*
%TO.P,D38,A*%
%TO.N,N/C*%
X188376500Y-124339100D03*
D13*
%TO.P,D38,K*%
X180839500Y-124339100D03*
%TD*%
D12*
%TO.P,D37,A*%
%TO.N,N/C*%
X188376500Y-121069100D03*
D13*
%TO.P,D37,K*%
X180839500Y-121069100D03*
%TD*%
D12*
%TO.P,D36,A*%
%TO.N,N/C*%
X188376500Y-117799100D03*
D13*
%TO.P,D36,K*%
X180839500Y-117799100D03*
%TD*%
D12*
%TO.P,D35,A*%
%TO.N,N/C*%
X188376500Y-114529100D03*
D13*
%TO.P,D35,K*%
X180839500Y-114529100D03*
%TD*%
D12*
%TO.P,D34,A*%
%TO.N,N/C*%
X188376500Y-111259100D03*
D13*
%TO.P,D34,K*%
X180839500Y-111259100D03*
%TD*%
D12*
%TO.P,D33,A*%
%TO.N,N/C*%
X177514000Y-143959100D03*
D13*
%TO.P,D33,K*%
X169977000Y-143959100D03*
%TD*%
D12*
%TO.P,D32,A*%
%TO.N,N/C*%
X177514000Y-140689100D03*
D13*
%TO.P,D32,K*%
X169977000Y-140689100D03*
%TD*%
D12*
%TO.P,D31,A*%
%TO.N,N/C*%
X177514000Y-137419100D03*
D13*
%TO.P,D31,K*%
X169977000Y-137419100D03*
%TD*%
D12*
%TO.P,D30,A*%
%TO.N,N/C*%
X177514000Y-134149100D03*
D13*
%TO.P,D30,K*%
X169977000Y-134149100D03*
%TD*%
D12*
%TO.P,D29,A*%
%TO.N,N/C*%
X177514000Y-130879100D03*
D13*
%TO.P,D29,K*%
X169977000Y-130879100D03*
%TD*%
D12*
%TO.P,D28,A*%
%TO.N,N/C*%
X177514000Y-127609100D03*
D13*
%TO.P,D28,K*%
X169977000Y-127609100D03*
%TD*%
D12*
%TO.P,D27,A*%
%TO.N,N/C*%
X177514000Y-124339100D03*
D13*
%TO.P,D27,K*%
X169977000Y-124339100D03*
%TD*%
D12*
%TO.P,D26,A*%
%TO.N,N/C*%
X177514000Y-121069100D03*
D13*
%TO.P,D26,K*%
X169977000Y-121069100D03*
%TD*%
D12*
%TO.P,D25,A*%
%TO.N,N/C*%
X177514000Y-117799100D03*
D13*
%TO.P,D25,K*%
X169977000Y-117799100D03*
%TD*%
D12*
%TO.P,D24,A*%
%TO.N,N/C*%
X177514000Y-114529100D03*
D13*
%TO.P,D24,K*%
X169977000Y-114529100D03*
%TD*%
D12*
%TO.P,D23,A*%
%TO.N,N/C*%
X177514000Y-111259100D03*
D13*
%TO.P,D23,K*%
X169977000Y-111259100D03*
%TD*%
D12*
%TO.P,D22,A*%
%TO.N,N/C*%
X166651500Y-143959100D03*
D13*
%TO.P,D22,K*%
X159114500Y-143959100D03*
%TD*%
D12*
%TO.P,D21,A*%
%TO.N,N/C*%
X166651500Y-140689100D03*
D13*
%TO.P,D21,K*%
X159114500Y-140689100D03*
%TD*%
D12*
%TO.P,D20,A*%
%TO.N,N/C*%
X166651500Y-137419100D03*
D13*
%TO.P,D20,K*%
X159114500Y-137419100D03*
%TD*%
D12*
%TO.P,D19,A*%
%TO.N,N/C*%
X166651500Y-134149100D03*
D13*
%TO.P,D19,K*%
X159114500Y-134149100D03*
%TD*%
D12*
%TO.P,D18,A*%
%TO.N,N/C*%
X166651500Y-130879100D03*
D13*
%TO.P,D18,K*%
X159114500Y-130879100D03*
%TD*%
D12*
%TO.P,D17,A*%
%TO.N,N/C*%
X166651500Y-127609100D03*
D13*
%TO.P,D17,K*%
X159114500Y-127609100D03*
%TD*%
D12*
%TO.P,D16,A*%
%TO.N,N/C*%
X166651500Y-124339100D03*
D13*
%TO.P,D16,K*%
X159114500Y-124339100D03*
%TD*%
D12*
%TO.P,D15,A*%
%TO.N,N/C*%
X166651500Y-121069100D03*
D13*
%TO.P,D15,K*%
X159114500Y-121069100D03*
%TD*%
D12*
%TO.P,D14,A*%
%TO.N,N/C*%
X166651500Y-117799100D03*
D13*
%TO.P,D14,K*%
X159114500Y-117799100D03*
%TD*%
D12*
%TO.P,D13,A*%
%TO.N,N/C*%
X166651500Y-114529100D03*
D13*
%TO.P,D13,K*%
X159114500Y-114529100D03*
%TD*%
D12*
%TO.P,D12,A*%
%TO.N,N/C*%
X166651500Y-111259100D03*
D13*
%TO.P,D12,K*%
X159114500Y-111259100D03*
%TD*%
D12*
%TO.P,D11,A*%
%TO.N,N/C*%
X155789000Y-143959100D03*
D13*
%TO.P,D11,K*%
X148252000Y-143959100D03*
%TD*%
D12*
%TO.P,D10,A*%
%TO.N,N/C*%
X155789000Y-140689100D03*
D13*
%TO.P,D10,K*%
X148252000Y-140689100D03*
%TD*%
D12*
%TO.P,D9,A*%
%TO.N,N/C*%
X155789000Y-137419100D03*
D13*
%TO.P,D9,K*%
X148252000Y-137419100D03*
%TD*%
D12*
%TO.P,D8,A*%
%TO.N,N/C*%
X155789000Y-134149100D03*
D13*
%TO.P,D8,K*%
X148252000Y-134149100D03*
%TD*%
D12*
%TO.P,D7,A*%
%TO.N,N/C*%
X155789000Y-130879100D03*
D13*
%TO.P,D7,K*%
X148252000Y-130879100D03*
%TD*%
D12*
%TO.P,D6,A*%
%TO.N,N/C*%
X155789000Y-127609100D03*
D13*
%TO.P,D6,K*%
X148252000Y-127609100D03*
%TD*%
D12*
%TO.P,D5,A*%
%TO.N,N/C*%
X155789000Y-124339100D03*
D13*
%TO.P,D5,K*%
X148252000Y-124339100D03*
%TD*%
D12*
%TO.P,D4,A*%
%TO.N,N/C*%
X155789000Y-121069100D03*
D13*
%TO.P,D4,K*%
X148252000Y-121069100D03*
%TD*%
D12*
%TO.P,D3,A*%
%TO.N,N/C*%
X155789000Y-117799100D03*
D13*
%TO.P,D3,K*%
X148252000Y-117799100D03*
%TD*%
D12*
%TO.P,D2,A*%
%TO.N,N/C*%
X155789000Y-114529100D03*
D13*
%TO.P,D2,K*%
X148252000Y-114529100D03*
%TD*%
D12*
%TO.P,D1,A*%
%TO.N,N/C*%
X155789000Y-111259100D03*
D13*
%TO.P,D1,K*%
X148252000Y-111259100D03*
%TD*%
D14*
%TO.N,1*%
X102796300Y-132647000D03*
%TO.N,2*%
X99822200Y-138631000D03*
%TO.N,3*%
X128517800Y-139694300D03*
%TO.N,col5*%
X247046100Y-128144100D03*
X189591200Y-128202200D03*
%TO.N,col4*%
X287190500Y-132647000D03*
%TO.N,col3*%
X220578300Y-132647000D03*
X272320000Y-141623000D03*
%TO.N,col2*%
X236630800Y-174789800D03*
X111718600Y-117687000D03*
X308009200Y-195913100D03*
%TO.N,col1*%
X129563200Y-108711000D03*
%TD*%
D15*
%TO.N,1*%
X94810500Y-183394200D02*
X94810500Y-198645800D01*
X98012800Y-180191900D02*
X94810500Y-183394200D01*
X98012800Y-154984800D02*
X98012800Y-180191900D01*
X102796300Y-150201300D02*
X98012800Y-154984800D01*
X102796300Y-132647000D02*
X102796300Y-150201300D01*
%TO.N,2*%
X96607200Y-169363600D02*
X94754600Y-171216200D01*
X96607200Y-141846000D02*
X96607200Y-169363600D01*
X99822200Y-138631000D02*
X96607200Y-141846000D01*
%TO.N,3*%
X122031900Y-146180200D02*
X128517800Y-139694300D01*
X122031900Y-171164100D02*
X122031900Y-146180200D01*
%TO.N,col5*%
X81171800Y-157542800D02*
X81171800Y-184885700D01*
X210286300Y-127088400D02*
X210286300Y-126032700D01*
X210286300Y-104228400D02*
X210286300Y-105284100D01*
X253500500Y-134598500D02*
X253500500Y-152332300D01*
X247046100Y-128144100D02*
X253500500Y-134598500D01*
X210814200Y-126032700D02*
X210286300Y-126032700D01*
X211342000Y-125504900D02*
X210814200Y-126032700D01*
X211342000Y-105811900D02*
X211342000Y-125504900D01*
X210814200Y-105284100D02*
X211342000Y-105811900D01*
X210286300Y-105284100D02*
X210814200Y-105284100D01*
X290867700Y-175943000D02*
X282064600Y-184746100D01*
X290867700Y-148635800D02*
X290867700Y-175943000D01*
X295734300Y-143769200D02*
X290867700Y-148635800D01*
X295754800Y-198436300D02*
X282064600Y-184746100D01*
X282064600Y-184746100D02*
X282035200Y-184775500D01*
X182109900Y-135683500D02*
X189591200Y-128202200D01*
X182109900Y-173422600D02*
X182109900Y-135683500D01*
%TO.N,col4*%
X67587800Y-171239500D02*
X67507100Y-171320200D01*
X67587800Y-143854700D02*
X67587800Y-171239500D01*
X336797200Y-111055800D02*
X336797200Y-130033100D01*
X335990300Y-110248900D02*
X336797200Y-111055800D01*
X335990300Y-103436000D02*
X335990300Y-110248900D01*
X336751000Y-102675300D02*
X335990300Y-103436000D01*
X201367700Y-154068000D02*
X201316500Y-154068000D01*
X282094100Y-137743400D02*
X282094100Y-157384600D01*
X287190500Y-132647000D02*
X282094100Y-137743400D01*
X201367700Y-110566800D02*
X201367700Y-154068000D01*
X210246100Y-101688400D02*
X201367700Y-110566800D01*
X210286300Y-101688400D02*
X210246100Y-101688400D01*
X192251600Y-190846500D02*
X197471600Y-196066500D01*
X192251600Y-171067000D02*
X192251600Y-190846500D01*
X201367700Y-161950900D02*
X192251600Y-171067000D01*
X201367700Y-154068000D02*
X201367700Y-161950900D01*
%TO.N,col3*%
X53898300Y-130269300D02*
X53933000Y-130234600D01*
X53898300Y-157438700D02*
X53898300Y-130269300D01*
X336783300Y-157395200D02*
X336783300Y-157508500D01*
X323160100Y-143772000D02*
X336783300Y-157395200D01*
X323088200Y-143772000D02*
X323160100Y-143772000D01*
X220578300Y-173448600D02*
X220578300Y-132647000D01*
X323088200Y-124810500D02*
X323088200Y-143772000D01*
X322297600Y-124019900D02*
X323088200Y-124810500D01*
X322297600Y-117207100D02*
X322297600Y-124019900D01*
X323058300Y-116446400D02*
X322297600Y-117207100D01*
X210326400Y-99148400D02*
X210286300Y-99148400D01*
X220578300Y-109400300D02*
X210326400Y-99148400D01*
X220578300Y-132647000D02*
X220578300Y-109400300D01*
X272320000Y-167158600D02*
X272320000Y-141623000D01*
X268433200Y-171045400D02*
X272320000Y-167158600D01*
%TO.N,col2*%
X236630800Y-193899800D02*
X241089300Y-198358300D01*
X236630800Y-174789800D02*
X236630800Y-193899800D01*
X122082700Y-174842000D02*
X122082700Y-198540400D01*
X120630200Y-173389500D02*
X122082700Y-174842000D01*
X120630200Y-126598600D02*
X120630200Y-173389500D01*
X111718600Y-117687000D02*
X120630200Y-126598600D01*
X208658900Y-166074200D02*
X201319200Y-173413900D01*
X208658900Y-103843600D02*
X208658900Y-166074200D01*
X209516900Y-102985600D02*
X208658900Y-103843600D01*
X210970300Y-102985600D02*
X209516900Y-102985600D01*
X211643400Y-102312500D02*
X210970300Y-102985600D01*
X211643400Y-101033400D02*
X211643400Y-102312500D01*
X211055600Y-100445600D02*
X211643400Y-101033400D01*
X209606800Y-100445600D02*
X211055600Y-100445600D01*
X209230600Y-100069400D02*
X209606800Y-100445600D01*
X209230600Y-95651900D02*
X209230600Y-100069400D01*
X209758400Y-95124100D02*
X209230600Y-95651900D01*
X210286300Y-95124100D02*
X209758400Y-95124100D01*
X210286300Y-94068400D02*
X210286300Y-95124100D01*
X314805500Y-162750800D02*
X314805500Y-171034600D01*
X309452600Y-157397900D02*
X314805500Y-162750800D01*
X309367500Y-157397900D02*
X309452600Y-157397900D01*
X314805500Y-171034600D02*
X323018300Y-171034600D01*
X309009200Y-194913100D02*
X308009200Y-195913100D01*
X309009200Y-193170500D02*
X309009200Y-194913100D01*
X308607300Y-192768600D02*
X309009200Y-193170500D01*
X308607300Y-188267700D02*
X308607300Y-192768600D01*
X314805500Y-182069500D02*
X308607300Y-188267700D01*
X314805500Y-171034600D02*
X314805500Y-182069500D01*
%TO.N,col1*%
X129563200Y-144263000D02*
X137294800Y-151994600D01*
X129563200Y-108711000D02*
X129563200Y-144263000D01*
X137345600Y-183224100D02*
X135770800Y-184798900D01*
X137345600Y-152045400D02*
X137345600Y-183224100D01*
X137294800Y-151994600D02*
X137345600Y-152045400D01*
X305221700Y-161606000D02*
X295730200Y-171097500D01*
X305221700Y-134247100D02*
X305221700Y-161606000D01*
X309336900Y-130131900D02*
X305221700Y-134247100D01*
X295628700Y-171097500D02*
X295730200Y-171097500D01*
X295730200Y-171097500D02*
X309403600Y-184770900D01*
%TD*%
M02*
