%TF.GenerationSoftware,KiCad,Pcbnew,8.0.8*%
%TF.CreationDate,2025-06-15T20:35:26-04:00*%
%TF.ProjectId,keyboard meow,6b657962-6f61-4726-9420-6d656f772e6b,rev?*%
%TF.SameCoordinates,Original*%
%TF.FileFunction,Soldermask,Top*%
%TF.FilePolarity,Negative*%
%FSLAX46Y46*%
G04 Gerber Fmt 4.6, Leading zero omitted, Abs format (unit mm)*
G04 Created by KiCad (PCBNEW 8.0.8) date 2025-06-15 20:35:26*
%MOMM*%
%LPD*%
G01*
G04 APERTURE LIST*
G04 Aperture macros list*
%AMRoundRect*
0 Rectangle with rounded corners*
0 $1 Rounding radius*
0 $2 $3 $4 $5 $6 $7 $8 $9 X,Y pos of 4 corners*
0 Add a 4 corners polygon primitive as box body*
4,1,4,$2,$3,$4,$5,$6,$7,$8,$9,$2,$3,0*
0 Add four circle primitives for the rounded corners*
1,1,$1+$1,$2,$3*
1,1,$1+$1,$4,$5*
1,1,$1+$1,$6,$7*
1,1,$1+$1,$8,$9*
0 Add four rect primitives between the rounded corners*
20,1,$1+$1,$2,$3,$4,$5,0*
20,1,$1+$1,$4,$5,$6,$7,0*
20,1,$1+$1,$6,$7,$8,$9,0*
20,1,$1+$1,$8,$9,$2,$3,0*%
G04 Aperture macros list end*
%ADD10RoundRect,0.102000X-0.754000X-0.754000X0.754000X-0.754000X0.754000X0.754000X-0.754000X0.754000X0*%
%ADD11C,1.700000*%
%ADD12C,4.000000*%
%ADD13C,2.200000*%
%ADD14C,1.442000*%
%ADD15RoundRect,0.102000X-0.619000X-0.619000X0.619000X-0.619000X0.619000X0.619000X-0.619000X0.619000X0*%
G04 APERTURE END LIST*
D10*
%TO.C,U1*%
X210286300Y-91528400D03*
X210286300Y-94068400D03*
X210286300Y-96608400D03*
X210286300Y-99148400D03*
X210286300Y-101688400D03*
X210286300Y-104228400D03*
X210286300Y-106768400D03*
X210286300Y-109308400D03*
X210286300Y-111848400D03*
X210286300Y-114388400D03*
X210286300Y-116928400D03*
X210286300Y-119468400D03*
X210286300Y-122008400D03*
X210286300Y-124548400D03*
X210286300Y-127088400D03*
X210286300Y-129628400D03*
X210286300Y-132168400D03*
X210286300Y-134708400D03*
X210286300Y-137248400D03*
X210286300Y-139788400D03*
X228066300Y-91528400D03*
X228066300Y-94068400D03*
X228066300Y-96608400D03*
X228066300Y-99148400D03*
X228066300Y-101688400D03*
X228066300Y-104228400D03*
X228066300Y-106768400D03*
X228066300Y-109308400D03*
X228066300Y-111848400D03*
X228066300Y-114388400D03*
X228066300Y-116928400D03*
X228066300Y-119468400D03*
X228066300Y-122008400D03*
X228066300Y-124548400D03*
X228066300Y-127088400D03*
X228066300Y-129628400D03*
X228066300Y-132168400D03*
X228066300Y-134708400D03*
X228066300Y-137248400D03*
X228066300Y-139788400D03*
%TD*%
D11*
%TO.C,SW44*%
X85830244Y-196849749D03*
D12*
X89422346Y-200441851D03*
D11*
X93014449Y-204033954D03*
D13*
X94810500Y-198645800D03*
X88524321Y-195951723D03*
%TD*%
D11*
%TO.C,SW43*%
X85774344Y-169420149D03*
D12*
X89366446Y-173012251D03*
D11*
X92958549Y-176604354D03*
D13*
X94754600Y-171216200D03*
X88468421Y-168522123D03*
%TD*%
D11*
%TO.C,SW42*%
X113051644Y-169368049D03*
D12*
X116643746Y-172960151D03*
D11*
X120235849Y-176552254D03*
D13*
X122031900Y-171164100D03*
X115745721Y-168470023D03*
%TD*%
D11*
%TO.C,SW40*%
X174489900Y-178502600D03*
D12*
X179569900Y-178502600D03*
D11*
X184649900Y-178502600D03*
D13*
X182109900Y-173422600D03*
X175759900Y-175962600D03*
%TD*%
D11*
%TO.C,SW39*%
X245880500Y-157412300D03*
D12*
X250960500Y-157412300D03*
D11*
X256040500Y-157412300D03*
D13*
X253500500Y-152332300D03*
X247150500Y-154872300D03*
%TD*%
D11*
%TO.C,SW38*%
X293958749Y-207416556D03*
D12*
X297550851Y-203824454D03*
D11*
X301142954Y-200232351D03*
D13*
X295754800Y-198436300D03*
X293060723Y-204722479D03*
%TD*%
D11*
%TO.C,SW37*%
X280239149Y-193755756D03*
D12*
X283831251Y-190163654D03*
D11*
X287423354Y-186571551D03*
D13*
X282035200Y-184775500D03*
X279341123Y-191061679D03*
%TD*%
D11*
%TO.C,SW36*%
X293938249Y-152749456D03*
D12*
X297530351Y-149157354D03*
D11*
X301122454Y-145565251D03*
D13*
X295734300Y-143769200D03*
X293040223Y-150055379D03*
%TD*%
D11*
%TO.C,SW35*%
X72191544Y-183089649D03*
D12*
X75783646Y-186681751D03*
D11*
X79375749Y-190273854D03*
D13*
X81171800Y-184885700D03*
X74885621Y-182191623D03*
%TD*%
D11*
%TO.C,SW34*%
X72191544Y-155746749D03*
D12*
X75783646Y-159338851D03*
D11*
X79375749Y-162930954D03*
D13*
X81171800Y-157542800D03*
X74885621Y-154848723D03*
%TD*%
D11*
%TO.C,SW33*%
X99446444Y-155693449D03*
D12*
X103038546Y-159285551D03*
D11*
X106630649Y-162877654D03*
D13*
X108426700Y-157489500D03*
X102140521Y-154795423D03*
%TD*%
D11*
%TO.C,SW32*%
X193696500Y-159148000D03*
D12*
X198776500Y-159148000D03*
D11*
X203856500Y-159148000D03*
D13*
X201316500Y-154068000D03*
X194966500Y-156608000D03*
%TD*%
D11*
%TO.C,SW31*%
X189851600Y-201146500D03*
D12*
X194931600Y-201146500D03*
D11*
X200011600Y-201146500D03*
D13*
X197471600Y-196066500D03*
X191121600Y-198606500D03*
%TD*%
D11*
%TO.C,SW30*%
X335001149Y-139013356D03*
D12*
X338593251Y-135421254D03*
D11*
X342185354Y-131829151D03*
D13*
X336797200Y-130033100D03*
X334103123Y-136319279D03*
%TD*%
D11*
%TO.C,SW29*%
X334954949Y-111655556D03*
D12*
X338547051Y-108063454D03*
D11*
X342139154Y-104471351D03*
D13*
X336751000Y-102675300D03*
X334056923Y-108961479D03*
%TD*%
D11*
%TO.C,SW28*%
X280298049Y-166364856D03*
D12*
X283890151Y-162772754D03*
D11*
X287482254Y-159180651D03*
D13*
X282094100Y-157384600D03*
X279400023Y-163670779D03*
%TD*%
D11*
%TO.C,SW27*%
X58526844Y-169524149D03*
D12*
X62118946Y-173116251D03*
D11*
X65711049Y-176708354D03*
D13*
X67507100Y-171320200D03*
X61220921Y-168626123D03*
%TD*%
D11*
%TO.C,SW26*%
X58607544Y-142058649D03*
D12*
X62199646Y-145650751D03*
D11*
X65791749Y-149242854D03*
D13*
X67587800Y-143854700D03*
X61301621Y-141160623D03*
%TD*%
D11*
%TO.C,SW25*%
X85825144Y-142093349D03*
D12*
X89417246Y-145685451D03*
D11*
X93009349Y-149277554D03*
D13*
X94805400Y-143889400D03*
X88519221Y-141195323D03*
%TD*%
D11*
%TO.C,SW24*%
X212958300Y-178528600D03*
D12*
X218038300Y-178528600D03*
D11*
X223118300Y-178528600D03*
D13*
X220578300Y-173448600D03*
X214228300Y-175988600D03*
%TD*%
D11*
%TO.C,SW23*%
X334987249Y-166488756D03*
D12*
X338579351Y-162896654D03*
D11*
X342171454Y-159304551D03*
D13*
X336783300Y-157508500D03*
X334089223Y-163794679D03*
%TD*%
D11*
%TO.C,SW22*%
X321292149Y-152752256D03*
D12*
X324884251Y-149160154D03*
D11*
X328476354Y-145568051D03*
D13*
X323088200Y-143772000D03*
X320394123Y-150058179D03*
%TD*%
D11*
%TO.C,SW21*%
X321262249Y-125426656D03*
D12*
X324854351Y-121834554D03*
D11*
X328446454Y-118242451D03*
D13*
X323058300Y-116446400D03*
X320364223Y-122732579D03*
%TD*%
D11*
%TO.C,SW20*%
X266637149Y-180025656D03*
D12*
X270229251Y-176433554D03*
D11*
X273821354Y-172841451D03*
D13*
X268433200Y-171045400D03*
X265739123Y-177331579D03*
%TD*%
D11*
%TO.C,SW19*%
X44918044Y-155642649D03*
D12*
X48510146Y-159234751D03*
D11*
X52102249Y-162826854D03*
D13*
X53898300Y-157438700D03*
X47612121Y-154744623D03*
%TD*%
D11*
%TO.C,SW18*%
X44952744Y-128438549D03*
D12*
X48544846Y-132030651D03*
D11*
X52136949Y-135622754D03*
D13*
X53933000Y-130234600D03*
X47646821Y-127540523D03*
%TD*%
D11*
%TO.C,SW17*%
X72168444Y-128426949D03*
D12*
X75760546Y-132019051D03*
D11*
X79352649Y-135611154D03*
D13*
X81148700Y-130223000D03*
X74862521Y-127528923D03*
%TD*%
D11*
%TO.C,SW16*%
X193699200Y-178493900D03*
D12*
X198779200Y-178493900D03*
D11*
X203859200Y-178493900D03*
D13*
X201319200Y-173413900D03*
X194969200Y-175953900D03*
%TD*%
D11*
%TO.C,SW15*%
X321222249Y-180014856D03*
D12*
X324814351Y-176422754D03*
D11*
X328406454Y-172830651D03*
D13*
X323018300Y-171034600D03*
X320324223Y-177320779D03*
%TD*%
D11*
%TO.C,SW14*%
X307571449Y-166378156D03*
D12*
X311163551Y-162786054D03*
D11*
X314755654Y-159193951D03*
D13*
X309367500Y-157397900D03*
X306673423Y-163684079D03*
%TD*%
D11*
%TO.C,SW13*%
X266509849Y-207381856D03*
D12*
X270101951Y-203789754D03*
D11*
X273694054Y-200197651D03*
D13*
X268305900Y-198401600D03*
X265611823Y-204687779D03*
%TD*%
D11*
%TO.C,SW12*%
X239293249Y-207338556D03*
D12*
X242885351Y-203746454D03*
D11*
X246477454Y-200154351D03*
D13*
X241089300Y-198358300D03*
X238395223Y-204644479D03*
%TD*%
D11*
%TO.C,SW11*%
X113102444Y-196744349D03*
D12*
X116694546Y-200336451D03*
D11*
X120286649Y-203928554D03*
D13*
X122082700Y-198540400D03*
X115796521Y-195846323D03*
%TD*%
D11*
%TO.C,SW10*%
X140441644Y-196642149D03*
D12*
X144033746Y-200234251D03*
D11*
X147625849Y-203826354D03*
D13*
X149421900Y-198438200D03*
X143135721Y-195744123D03*
%TD*%
D11*
%TO.C,SW9*%
X58575344Y-114876349D03*
D12*
X62167446Y-118468451D03*
D11*
X65759549Y-122060554D03*
D13*
X67555600Y-116672400D03*
X61269421Y-113978323D03*
%TD*%
D11*
%TO.C,SW8*%
X129674800Y-157074600D03*
D12*
X134754800Y-157074600D03*
D11*
X139834800Y-157074600D03*
D13*
X137294800Y-151994600D03*
X130944800Y-154534600D03*
%TD*%
D11*
%TO.C,SW7*%
X307607549Y-193751156D03*
D12*
X311199651Y-190159054D03*
D11*
X314791754Y-186566951D03*
D13*
X309403600Y-184770900D03*
X306709523Y-191057079D03*
%TD*%
%TO.C,SW6*%
X292934623Y-177383679D03*
X295628700Y-171097500D03*
D11*
X301016854Y-172893551D03*
D12*
X297424751Y-176485654D03*
D11*
X293832649Y-180077756D03*
%TD*%
%TO.C,SW5*%
X307540849Y-139112156D03*
D12*
X311132951Y-135520054D03*
D11*
X314725054Y-131927951D03*
D13*
X309336900Y-130131900D03*
X306642823Y-136418079D03*
%TD*%
%TO.C,SW4*%
X252048123Y-191021379D03*
X254742200Y-184735200D03*
D11*
X260130354Y-186531251D03*
D12*
X256538251Y-190123354D03*
D11*
X252946149Y-193715456D03*
%TD*%
%TO.C,SW3*%
X99413044Y-183106949D03*
D12*
X103005146Y-186699051D03*
D11*
X106597249Y-190291154D03*
D13*
X108393300Y-184903000D03*
X102107121Y-182208923D03*
%TD*%
D11*
%TO.C,SW2*%
X126790544Y-183002849D03*
D12*
X130382646Y-186594951D03*
D11*
X133974749Y-190187054D03*
D13*
X135770800Y-184798900D03*
X129484621Y-182104823D03*
%TD*%
%TO.C,SW1*%
X49466179Y-109374077D03*
X43180000Y-106680000D03*
D11*
X44976051Y-101291846D03*
D12*
X48568154Y-104883949D03*
D11*
X52160256Y-108476051D03*
%TD*%
D14*
%TO.C,D43*%
X188376500Y-140689100D03*
D15*
X180839500Y-140689100D03*
%TD*%
D14*
%TO.C,D42*%
X188376500Y-137419100D03*
D15*
X180839500Y-137419100D03*
%TD*%
D14*
%TO.C,D41*%
X188376500Y-134149100D03*
D15*
X180839500Y-134149100D03*
%TD*%
D14*
%TO.C,D40*%
X188376500Y-130879100D03*
D15*
X180839500Y-130879100D03*
%TD*%
D14*
%TO.C,D39*%
X188376500Y-127609100D03*
D15*
X180839500Y-127609100D03*
%TD*%
D14*
%TO.C,D38*%
X188376500Y-124339100D03*
D15*
X180839500Y-124339100D03*
%TD*%
D14*
%TO.C,D37*%
X188376500Y-121069100D03*
D15*
X180839500Y-121069100D03*
%TD*%
D14*
%TO.C,D36*%
X188376500Y-117799100D03*
D15*
X180839500Y-117799100D03*
%TD*%
D14*
%TO.C,D35*%
X188376500Y-114529100D03*
D15*
X180839500Y-114529100D03*
%TD*%
D14*
%TO.C,D34*%
X188376500Y-111259100D03*
D15*
X180839500Y-111259100D03*
%TD*%
D14*
%TO.C,D33*%
X177514000Y-143959100D03*
D15*
X169977000Y-143959100D03*
%TD*%
D14*
%TO.C,D32*%
X177514000Y-140689100D03*
D15*
X169977000Y-140689100D03*
%TD*%
D14*
%TO.C,D31*%
X177514000Y-137419100D03*
D15*
X169977000Y-137419100D03*
%TD*%
D14*
%TO.C,D30*%
X177514000Y-134149100D03*
D15*
X169977000Y-134149100D03*
%TD*%
D14*
%TO.C,D29*%
X177514000Y-130879100D03*
D15*
X169977000Y-130879100D03*
%TD*%
D14*
%TO.C,D28*%
X177514000Y-127609100D03*
D15*
X169977000Y-127609100D03*
%TD*%
D14*
%TO.C,D27*%
X177514000Y-124339100D03*
D15*
X169977000Y-124339100D03*
%TD*%
D14*
%TO.C,D26*%
X177514000Y-121069100D03*
D15*
X169977000Y-121069100D03*
%TD*%
D14*
%TO.C,D25*%
X177514000Y-117799100D03*
D15*
X169977000Y-117799100D03*
%TD*%
D14*
%TO.C,D24*%
X177514000Y-114529100D03*
D15*
X169977000Y-114529100D03*
%TD*%
D14*
%TO.C,D23*%
X177514000Y-111259100D03*
D15*
X169977000Y-111259100D03*
%TD*%
D14*
%TO.C,D22*%
X166651500Y-143959100D03*
D15*
X159114500Y-143959100D03*
%TD*%
D14*
%TO.C,D21*%
X166651500Y-140689100D03*
D15*
X159114500Y-140689100D03*
%TD*%
D14*
%TO.C,D20*%
X166651500Y-137419100D03*
D15*
X159114500Y-137419100D03*
%TD*%
D14*
%TO.C,D19*%
X166651500Y-134149100D03*
D15*
X159114500Y-134149100D03*
%TD*%
D14*
%TO.C,D18*%
X166651500Y-130879100D03*
D15*
X159114500Y-130879100D03*
%TD*%
D14*
%TO.C,D17*%
X166651500Y-127609100D03*
D15*
X159114500Y-127609100D03*
%TD*%
D14*
%TO.C,D16*%
X166651500Y-124339100D03*
D15*
X159114500Y-124339100D03*
%TD*%
D14*
%TO.C,D15*%
X166651500Y-121069100D03*
D15*
X159114500Y-121069100D03*
%TD*%
D14*
%TO.C,D14*%
X166651500Y-117799100D03*
D15*
X159114500Y-117799100D03*
%TD*%
D14*
%TO.C,D13*%
X166651500Y-114529100D03*
D15*
X159114500Y-114529100D03*
%TD*%
D14*
%TO.C,D12*%
X166651500Y-111259100D03*
D15*
X159114500Y-111259100D03*
%TD*%
D14*
%TO.C,D11*%
X155789000Y-143959100D03*
D15*
X148252000Y-143959100D03*
%TD*%
D14*
%TO.C,D10*%
X155789000Y-140689100D03*
D15*
X148252000Y-140689100D03*
%TD*%
D14*
%TO.C,D9*%
X155789000Y-137419100D03*
D15*
X148252000Y-137419100D03*
%TD*%
D14*
%TO.C,D8*%
X155789000Y-134149100D03*
D15*
X148252000Y-134149100D03*
%TD*%
D14*
%TO.C,D7*%
X155789000Y-130879100D03*
D15*
X148252000Y-130879100D03*
%TD*%
D14*
%TO.C,D6*%
X155789000Y-127609100D03*
D15*
X148252000Y-127609100D03*
%TD*%
D14*
%TO.C,D5*%
X155789000Y-124339100D03*
D15*
X148252000Y-124339100D03*
%TD*%
D14*
%TO.C,D4*%
X155789000Y-121069100D03*
D15*
X148252000Y-121069100D03*
%TD*%
D14*
%TO.C,D3*%
X155789000Y-117799100D03*
D15*
X148252000Y-117799100D03*
%TD*%
D14*
%TO.C,D2*%
X155789000Y-114529100D03*
D15*
X148252000Y-114529100D03*
%TD*%
D14*
%TO.C,D1*%
X155789000Y-111259100D03*
D15*
X148252000Y-111259100D03*
%TD*%
M02*
