M48
; DRILL file {KiCad 8.0.8} date 2025-06-15T20:35:29-0400
; FORMAT={-:-/ absolute / inch / decimal}
; #@! TF.CreationDate,2025-06-15T20:35:29-04:00
; #@! TF.GenerationSoftware,Kicad,Pcbnew,8.0.8
; #@! TF.FileFunction,NonPlated,1,2,NPTH
FMAT,2
INCH
; #@! TA.AperFunction,NonPlated,NPTH,ComponentDrill
T1C0.0669
; #@! TA.AperFunction,NonPlated,NPTH,ComponentDrill
T2C0.1575
%
G90
G05
T1
X1.7684Y-6.1277
X1.7698Y-5.0566
X1.7707Y-3.9879
X2.0513Y-6.4105
X2.0526Y-5.3395
X2.0536Y-4.2707
X2.3042Y-6.6742
X2.3061Y-4.5227
X2.3074Y-5.5929
X2.587Y-6.957
X2.589Y-4.8055
X2.5902Y-5.8757
X2.8413Y-5.0562
X2.8422Y-6.1318
X2.8422Y-7.2083
X3.1241Y-5.339
X3.125Y-6.4146
X3.125Y-7.4911
X3.3769Y-6.6701
X3.3789Y-5.5942
X3.3791Y-7.75
X3.6598Y-6.9529
X3.6618Y-5.8771
X3.662Y-8.0328
X3.9139Y-7.2089
X3.9152Y-6.1297
X4.1967Y-7.4918
X4.1981Y-6.4125
X4.4509Y-6.668
X4.4529Y-7.7458
X4.7337Y-6.9509
X4.7357Y-8.0287
X4.9918Y-7.2048
X5.1053Y-6.184
X5.2746Y-7.4877
X5.5053Y-6.184
X5.5292Y-7.7418
X5.812Y-8.0247
X6.8697Y-7.0277
X7.2697Y-7.0277
X7.4745Y-7.9192
X7.6258Y-6.2657
X7.626Y-7.0273
X7.8745Y-7.9192
X8.0258Y-6.2657
X8.026Y-7.0273
X8.3842Y-7.0287
X8.7842Y-7.0287
X9.421Y-8.1629
X9.6803Y-6.1973
X9.7038Y-7.8801
X9.9585Y-7.6266
X10.0803Y-6.1973
X10.2414Y-7.3438
X10.4925Y-8.1646
X10.4975Y-7.0876
X10.7754Y-7.8818
X10.7804Y-6.8048
X11.033Y-7.6282
X11.0354Y-6.5498
X11.3159Y-7.3453
X11.3182Y-6.267
X11.5682Y-7.0897
X11.5724Y-6.0138
X11.5732Y-8.166
X11.8511Y-6.8068
X11.8552Y-5.7309
X11.856Y-7.8832
X12.1079Y-5.4769
X12.1091Y-6.5503
X12.1105Y-7.628
X12.3908Y-5.194
X12.392Y-6.2675
X12.3934Y-7.3452
X12.6465Y-7.0872
X12.6481Y-4.9381
X12.6493Y-6.0139
X12.9294Y-6.8044
X12.931Y-4.6552
X12.9321Y-5.731
X13.1872Y-4.3959
X13.1885Y-6.5547
X13.189Y-5.473
X13.47Y-4.113
X13.4713Y-6.2718
X13.4719Y-5.1901
T2
X1.9098Y-6.2691
X1.9112Y-5.1981
X1.9121Y-4.1293
X2.4456Y-6.8156
X2.4475Y-4.6641
X2.4488Y-5.7343
X2.9827Y-5.1976
X2.9836Y-6.2732
X2.9836Y-7.3497
X3.5184Y-6.8115
X3.5204Y-5.7356
X3.5206Y-7.8914
X4.0553Y-7.3504
X4.0566Y-6.2711
X4.5923Y-6.8095
X4.5943Y-7.8873
X5.1332Y-7.3463
X5.3053Y-6.184
X5.6706Y-7.8832
X7.0697Y-7.0277
X7.6745Y-7.9192
X7.8258Y-6.2657
X7.826Y-7.0273
X8.5842Y-7.0287
X9.5624Y-8.0215
X9.8803Y-6.1973
X10.0999Y-7.4852
X10.6339Y-8.0232
X10.6389Y-6.9462
X11.1745Y-7.4868
X11.1768Y-6.4084
X11.7096Y-6.9483
X11.7138Y-5.8723
X11.7146Y-8.0246
X12.2493Y-5.3354
X12.2505Y-6.4089
X12.252Y-7.4866
X12.788Y-6.9458
X12.7895Y-4.7966
X12.7907Y-5.8724
X13.3286Y-4.2545
X13.3299Y-6.4133
X13.3304Y-5.3315
M30
