M48
; DRILL file {KiCad 8.0.8} date 2025-06-15T20:35:29-0400
; FORMAT={-:-/ absolute / inch / decimal}
; #@! TF.CreationDate,2025-06-15T20:35:29-04:00
; #@! TF.GenerationSoftware,Kicad,Pcbnew,8.0.8
; #@! TF.FileFunction,Plated,1,2,PTH
FMAT,2
INCH
; #@! TA.AperFunction,Plated,PTH,ViaDrill
T1C0.0118
; #@! TA.AperFunction,Plated,PTH,ComponentDrill
T2C0.0287
; #@! TA.AperFunction,Plated,PTH,ComponentDrill
T3C0.0394
; #@! TA.AperFunction,Plated,PTH,ComponentDrill
T4C0.0591
%
G90
G05
T1
X3.93Y-5.4579
X4.0471Y-5.2223
X4.3984Y-4.6333
X5.0598Y-5.4998
X5.1009Y-4.28
X7.4642Y-5.0473
X8.6842Y-5.2223
X9.3162Y-6.8815
X9.7262Y-5.045
X10.7213Y-5.5757
X11.3067Y-5.2223
X12.1263Y-7.7131
T2
X5.8367Y-4.3803
X5.8367Y-4.509
X5.8367Y-4.6378
X5.8367Y-4.7665
X5.8367Y-4.8952
X5.8367Y-5.024
X5.8367Y-5.1527
X5.8367Y-5.2815
X5.8367Y-5.4102
X5.8367Y-5.5389
X5.8367Y-5.6677
X6.1334Y-4.3803
X6.1334Y-4.509
X6.1334Y-4.6378
X6.1334Y-4.7665
X6.1334Y-4.8952
X6.1334Y-5.024
X6.1334Y-5.1527
X6.1334Y-5.2815
X6.1334Y-5.4102
X6.1334Y-5.5389
X6.1334Y-5.6677
X6.2644Y-4.3803
X6.2644Y-4.509
X6.2644Y-4.6378
X6.2644Y-4.7665
X6.2644Y-4.8952
X6.2644Y-5.024
X6.2644Y-5.1527
X6.2644Y-5.2815
X6.2644Y-5.4102
X6.2644Y-5.5389
X6.2644Y-5.6677
X6.5611Y-4.3803
X6.5611Y-4.509
X6.5611Y-4.6378
X6.5611Y-4.7665
X6.5611Y-4.8952
X6.5611Y-5.024
X6.5611Y-5.1527
X6.5611Y-5.2815
X6.5611Y-5.4102
X6.5611Y-5.5389
X6.5611Y-5.6677
X6.692Y-4.3803
X6.692Y-4.509
X6.692Y-4.6378
X6.692Y-4.7665
X6.692Y-4.8952
X6.692Y-5.024
X6.692Y-5.1527
X6.692Y-5.2815
X6.692Y-5.4102
X6.692Y-5.5389
X6.692Y-5.6677
X6.9887Y-4.3803
X6.9887Y-4.509
X6.9887Y-4.6378
X6.9887Y-4.7665
X6.9887Y-4.8952
X6.9887Y-5.024
X6.9887Y-5.1527
X6.9887Y-5.2815
X6.9887Y-5.4102
X6.9887Y-5.5389
X6.9887Y-5.6677
X7.1197Y-4.3803
X7.1197Y-4.509
X7.1197Y-4.6378
X7.1197Y-4.7665
X7.1197Y-4.8952
X7.1197Y-5.024
X7.1197Y-5.1527
X7.1197Y-5.2815
X7.1197Y-5.4102
X7.1197Y-5.5389
X7.4164Y-4.3803
X7.4164Y-4.509
X7.4164Y-4.6378
X7.4164Y-4.7665
X7.4164Y-4.8952
X7.4164Y-5.024
X7.4164Y-5.1527
X7.4164Y-5.2815
X7.4164Y-5.4102
X7.4164Y-5.5389
T3
X8.279Y-3.6035
X8.279Y-3.7035
X8.279Y-3.8035
X8.279Y-3.9035
X8.279Y-4.0035
X8.279Y-4.1035
X8.279Y-4.2035
X8.279Y-4.3035
X8.279Y-4.4035
X8.279Y-4.5035
X8.279Y-4.6035
X8.279Y-4.7035
X8.279Y-4.8035
X8.279Y-4.9035
X8.279Y-5.0035
X8.279Y-5.1035
X8.279Y-5.2035
X8.279Y-5.3035
X8.279Y-5.4035
X8.279Y-5.5035
X8.979Y-3.6035
X8.979Y-3.7035
X8.979Y-3.8035
X8.979Y-3.9035
X8.979Y-4.0035
X8.979Y-4.1035
X8.979Y-4.2035
X8.979Y-4.3035
X8.979Y-4.4035
X8.979Y-4.5035
X8.979Y-4.6035
X8.979Y-4.7035
X8.979Y-4.8035
X8.979Y-4.9035
X8.979Y-5.0035
X8.979Y-5.1035
X8.979Y-5.2035
X8.979Y-5.3035
X8.979Y-5.4035
X8.979Y-5.5035
T4
X1.7Y-4.2
X1.8745Y-6.0923
X1.8759Y-5.0213
X1.9475Y-4.3061
X2.122Y-6.1984
X2.1233Y-5.1273
X2.4103Y-6.6388
X2.4122Y-4.4873
X2.4134Y-5.5575
X2.6578Y-6.7449
X2.6597Y-4.5934
X2.6609Y-5.6636
X2.9473Y-5.0208
X2.9483Y-6.0964
X2.9483Y-7.1729
X3.1948Y-5.1269
X3.1957Y-6.2025
X3.1957Y-7.279
X3.483Y-6.6347
X3.485Y-5.5589
X3.4852Y-7.7146
X3.7305Y-6.7408
X3.7325Y-5.6649
X3.7327Y-7.8207
X4.02Y-7.1736
X4.0213Y-6.0943
X4.2675Y-7.2796
X4.2688Y-6.2004
X4.5569Y-6.6327
X4.5589Y-7.7105
X4.8044Y-6.7387
X4.8064Y-7.8166
X5.0978Y-7.1695
X5.1553Y-6.084
X5.3453Y-7.2755
X5.4053Y-5.984
X5.6353Y-7.7065
X5.8828Y-7.8125
X6.9197Y-6.9277
X7.1697Y-6.8277
X7.5245Y-7.8192
X7.6758Y-6.1657
X7.676Y-6.9273
X7.7745Y-7.7192
X7.9258Y-6.0657
X7.926Y-6.8273
X8.4342Y-6.9287
X8.6842Y-6.8287
X9.3856Y-8.0569
X9.4917Y-7.8094
X9.7303Y-6.0973
X9.9232Y-7.5205
X9.9803Y-5.9973
X10.0292Y-7.273
X10.4572Y-8.0586
X10.4622Y-6.9816
X10.5632Y-7.8111
X10.5682Y-6.7341
X10.9977Y-7.5221
X11.0Y-6.4437
X11.1037Y-7.2746
X11.1061Y-6.1962
X11.5329Y-6.9836
X11.537Y-5.9077
X11.5378Y-8.0599
X11.6389Y-6.7361
X11.6431Y-5.6602
X11.6439Y-7.8125
X12.0726Y-5.3708
X12.0738Y-6.4443
X12.0752Y-7.5219
X12.1786Y-5.1233
X12.1798Y-6.1968
X12.1812Y-7.2744
X12.6112Y-6.9811
X12.6128Y-4.832
X12.6139Y-5.9078
X12.7173Y-6.7336
X12.7188Y-4.5845
X12.72Y-5.6603
X13.1518Y-4.2898
X13.1531Y-6.4486
X13.1537Y-5.3669
X13.2579Y-4.0423
X13.2592Y-6.2011
X13.2597Y-5.1194
M30
